<svg xmlns="http://www.w3.org/2000/svg" width="254" height="252" fill="none" viewBox="0 0 254 252">
<!-- SVG created with Arrow, by QuiverAI (https://quiver.ai) -->
  <path d="m253.2 0.41h-252.4v251.2h252.4v-251.2z" fill="url(#paint0_linear_161_1568)"/>
  <path d="m247.9 3.86h-241.8v242.7h241.8v-242.7z" fill="#fff"/>
  <path d="m241.6 10.91h-230.1v229.6h230.1v-229.6z" fill="url(#paint1_linear_161_1568)"/>
  <path d="m123.8 63.34c-0.14-1.23-0.6-1.53-1.27-1.53-0.72 0-1.25 0.4-1.26 1.49l-0.11 30.41c-0.02 2.17-0.68 2.01-1.84 2.01-1.01 0-1.86-0.27-1.88-1.93l-0.32-30.38c-0.01-0.99-0.66-1.6-1.49-1.6-0.84 0-1.46 0.62-1.47 1.58l-0.43 30.14c0 1.75-0.92 2.02-1.93 2.02-1.14 0-1.97-0.37-1.97-2.04l-0.27-30.1c0-0.93-0.6-1.6-1.44-1.6s-1.44 0.66-1.46 1.6l-0.54 30.21c0 1.76-0.76 2.1-1.85 2.1-1.14 0-1.83-0.31-1.77-2.15l0.54-29.75c0-1.21-0.47-1.84-1.38-1.84-0.75 0-0.52 0.08-0.99 1.3-1.26 8.98-2.74 26.49-2.74 35.64 0 6.2 2.34 10.26 7.51 13.49 2.33 1.45 2.8 3.93 2.57 7.6l-3.05 61.11c-0.23 5.73 3.92 7.79 7.58 7.79 4.9 0 7.58-3.99 7.35-7.88l-2.95-62.27c-0.11-2.75 0.24-4.53 2.82-6.65 4.4-3.45 6.96-5.75 6.96-14.3 0-8-1.59-23.62-2.92-34.47z" fill="#FADDB6"/>
  <path d="m150.6 61.79c-6.44 0-15.14 18.02-15.14 38.5 0 10.62 3.32 19.8 8.22 25.33 1.51 1.83 1.6 3.02 1.36 5.94l-3.48 50.56c-0.23 4.94 3.14 6.79 6.52 6.79 4.67 0 7-3.9 6.9-7.62l-0.58-42.52v-72.64c0-3.01-1.05-4.34-3.8-4.34z" fill="#FADDB6"/>
  <defs>
    <linearGradient id="paint0_linear_161_1568" x1="127" x2="127" y1=".4072" y2="251.6" gradientUnits="userSpaceOnUse">
      <stop stop-color="#E3693C" offset="0"/>
      <stop stop-color="#D64637" offset="1"/>
    </linearGradient>
    <linearGradient id="paint1_linear_161_1568" x1="126.6" x2="126.6" y1="10.91" y2="240.5" gradientUnits="userSpaceOnUse">
      <stop stop-color="#E86F41" offset="0"/>
      <stop stop-color="#DC4A39" offset="1"/>
    </linearGradient>
  </defs>
</svg>